<svg width="169" height="105" viewBox="0 0 169 105" fill="none" xmlns="http://www.w3.org/2000/svg">
<path d="M16.0563 103.696V102.693C17.9295 102.693 19.2341 102.057 19.97 100.786C20.7059 99.5152 21.0738 97.8092 21.0738 95.6684V35.4575H20.0703C17.7957 35.4575 15.6549 35.8589 13.6478 36.6617C11.6408 37.3976 9.83447 38.468 8.22885 39.873C6.62323 41.211 5.18486 42.7832 3.91374 44.5895C2.70952 46.3958 1.73946 48.3694 1.00354 50.5102H3.05176e-05L3.01057 33.4505H55.1933L58.2039 50.5102H57.2004C56.4644 48.3694 55.4609 46.3958 54.1898 44.5895C52.9856 42.7832 51.5807 41.211 49.975 39.873C48.3694 38.468 46.5631 37.3976 44.5561 36.6617C42.6159 35.8589 40.4751 35.4575 38.1336 35.4575H37.1301V95.6684C37.1301 97.8092 37.498 99.5152 38.2339 100.786C38.9698 102.057 40.2744 102.693 42.1476 102.693V103.696H16.0563Z" fill="#FEFAE0"/>
<path d="M73.1272 73.0893H93.1975C93.1975 60.7126 90.187 54.5243 84.1659 54.5243C80.8877 54.5243 78.2451 56.2302 76.2381 59.6422C74.298 62.9872 73.261 67.4696 73.1272 73.0893ZM107.247 73.0893V75.0963H73.1272C73.261 79.0435 73.8297 82.5892 74.8332 85.7336C75.9036 88.8779 77.342 91.554 79.1483 93.7617C81.0215 95.9694 83.1958 97.6754 85.6712 98.8796C88.1465 100.084 90.8894 100.686 93.9 100.686C96.7767 100.686 99.3524 100.117 101.627 98.98C103.902 97.8427 106.109 96.0698 108.25 93.6613L109.254 94.6649C107.247 97.4078 104.337 99.7828 100.523 101.79C96.7098 103.73 92.2609 104.7 87.1764 104.7C82.6941 104.7 78.5797 104.098 74.8332 102.894C71.1536 101.623 67.9758 99.8497 65.2998 97.575C62.6907 95.2335 60.6502 92.4571 59.1784 89.2459C57.7734 85.9677 57.071 82.3216 57.071 78.3076C57.071 74.4942 57.7066 71.0154 58.9777 67.871C60.3157 64.6598 62.1555 61.9503 64.497 59.7425C66.9054 57.4679 69.7822 55.695 73.1272 54.4239C76.4723 53.1528 80.1518 52.5172 84.1659 52.5172C87.7116 52.5172 90.8894 53.019 93.6993 54.0225C96.576 54.9591 99.0179 56.3306 101.025 58.1369C103.032 59.9433 104.571 62.1175 105.641 64.6598C106.712 67.1351 107.247 69.9449 107.247 73.0893Z" fill="#FEFAE0"/>
<path d="M158.834 10.0352V16.7253C158.834 48.928 140.861 63.5559 118.694 63.5559H112.332C113.041 53.4806 116.178 47.3826 124.367 40.1372C128.394 36.5748 128.053 34.5176 126.07 35.6984C112.408 43.8268 105.621 54.812 105.32 72.3534L105.31 73.5911H98.6202C98.6202 69.0318 99.0082 64.8939 99.7776 61.1073C99.0104 56.7789 98.6258 50.905 98.6235 43.4856C98.6235 25.0109 113.599 10.0352 132.074 10.0352C138.764 10.0352 145.454 13.3802 158.834 10.0352Z" fill="#FEFAE0"/>
</svg>
